# xmcd
#
# Track frame offsets: 
#        150
#        10730
#        23334
#        33658
#        42628
#        55356
#        75531
#        87715
#        102299
#        113412
#        121791
#        134896
#        149029
#        163405
#        177534
#        191883
#        208947
#        221236
#        234142
#        242926
#        254740
#        270557
#
# Disc length: 3781 seconds
#
# Revision: 0
# Processed by: cddbd v1.5.2PL0 Copyright (c) Steve Scherf et al.
# Submitted via: ExactAudioCopyFreeDBPlugin 1.0
#
DISCID=550ec316
DTITLE=Various Artist - The Birth Of British Blues - Roundhouse Stomp
DYEAR=2015
DGENRE=Blues
TTITLE0=Jack Parnell and His Orchestra - Shake Rattle And Roll
TTITLE1=The Southlanders - Ain't That A Shame
TTITLE2=Suzi Miller - Dance With Me Henry
TTITLE3=Four Jones Boys - Tutti Frutti
TTITLE4=Eric Winstone Orchestra - Rythm 'n' Blues
TTITLE5=Chris Barber's Jazz Band - Wabash Blues
TTITLE6=Humphrey Lyttleton ft Johnny Parker - Bad Penny Blues
TTITLE7=The Lonnie Donegan Skiffle Group - Stackalee
TTITLE8=The Lonnie Donegan Skiffle Group - Bring A Little Water Sylvie
TTITLE9=The Lonnie Donegan Skiffle Group - I'm Alabamy Bound
TTITLE10=Beryl Bryden's Backroom Skiffle ft Alexis Korner and Cyril Davi
TTITLE10=es - Kansas City Blues
TTITLE11=Beryl Bryden's Backroom Skiffle ft Alexis Korner and Cyril Davi
TTITLE11=es - Casey Jones
TTITLE12=George Melly With Mick Mulligan's Jazz Band - Organ Grinder B
TTITLE12=lues
TTITLE13=Humphrey Lyttleton - Apex Blues
TTITLE14=Alexis Korner's Breakdown Group ft Cyril Davies - Leaving Blu
TTITLE14=es
TTITLE15=Alexis Korner's Breakdown Group ft Cyril Davies - Rotten Brea
TTITLE15=k
TTITLE16=Alexis Korner's Breakdown Group ft Cyril Davies - Alberta
TTITLE17=Alexis Korner's Breakdown Group ft Cyril Davies - Roundhouse 
TTITLE17=Stomp
TTITLE18=Alexis Korner's Breakdown Group ft Cyril Davies - Skip To My 
TTITLE18=Lou
TTITLE19=Alexis Korner's Breakdown Group ft Cyril Davies - Good Mornin
TTITLE19=g
TTITLE20=Alexis Korner's Breakdown Group ft Cyril Davies - Boll Weevil
TTITLE21=Alexis Korner's Breakdown Group ft Cyril Davies - Ella Speed
EXTD=
EXTT0=
EXTT1=
EXTT2=
EXTT3=
EXTT4=
EXTT5=
EXTT6=
EXTT7=
EXTT8=
EXTT9=
EXTT10=
EXTT11=
EXTT12=
EXTT13=
EXTT14=
EXTT15=
EXTT16=
EXTT17=
EXTT18=
EXTT19=
EXTT20=
EXTT21=
PLAYORDER=
